<?xml version="1.0" encoding="UTF-8" standalone="no"?>
<svg
   width="64"
   height="64"
   version="1"
   id="svg6"
   sodipodi:docname="dev.mariinkys.Cedilla.svg"
   inkscape:version="1.4.4 (dcaf3e7d9e, 2026-05-05)"
   xmlns:inkscape="http://www.inkscape.org/namespaces/inkscape"
   xmlns:sodipodi="http://sodipodi.sourceforge.net/DTD/sodipodi-0.dtd"
   xmlns="http://www.w3.org/2000/svg"
   xmlns:svg="http://www.w3.org/2000/svg">
  <defs
     id="defs6" />
  <sodipodi:namedview
     id="namedview6"
     pagecolor="#ffffff"
     bordercolor="#000000"
     borderopacity="0.25"
     inkscape:showpageshadow="2"
     inkscape:pageopacity="0.0"
     inkscape:pagecheckerboard="0"
     inkscape:deskcolor="#d1d1d1"
     inkscape:zoom="5.5381454"
     inkscape:cx="24.376391"
     inkscape:cy="44.238636"
     inkscape:current-layer="svg6" />
  <rect
     style="opacity:0.2"
     width="58"
     height="58"
     x="3"
     y="4"
     rx="17.4"
     ry="17.4"
     id="rect1" />
  <rect
     style="fill:#f0c350;fill-opacity:1"
     width="58"
     height="58"
     x="3"
     y="3"
     rx="17.4"
     ry="17.4"
     id="rect2" />
  <path
     style="opacity:0.2;fill:#ffffff"
     d="M 20.398438 3 C 10.758838 3 3 10.758838 3 20.398438 L 3 21.398438 C 3 11.758837 10.758838 4 20.398438 4 L 43.601562 4 C 53.241163 4 61 11.758838 61 21.398438 L 61 20.398438 C 61 10.758838 53.241163 3 43.601562 3 L 20.398438 3 z"
     id="path6" />
  <path
     d="m 32.906544,39.125656 c 0,3.865439 7.059428,3.865439 7.059428,8.69724 0,3.865439 -10.084898,3.865439 -12.101878,-1.93272"
     stroke="#2a2a2a"
     stroke-width="2.9616"
     fill="none"
     stroke-linecap="round"
     id="path3-5"
     style="opacity:0.2;stroke:#000000;stroke-opacity:1" />
  <path
     d="m 44,17.865441 a 14.118857,13.52904 0 1 0 0,19.327198 l -5.042449,-4.831797 a 9.0764083,8.6972396 0 1 1 0,-9.663602 z"
     fill="#2a2a2a"
     id="path2-6"
     style="opacity:0.2;fill:#000000;fill-opacity:1;stroke-width:0.493601" />
  <path
     d="m 32.9066,38.125562 c 0,3.86547 7.0594,3.86547 7.0594,8.69731 0,3.86547 -10.0849,3.86547 -12.1018,-1.932736"
     stroke="#2a2a2a"
     stroke-width="2.96161"
     fill="none"
     stroke-linecap="round"
     id="path3"
     style="stroke:#3f3f3f;stroke-opacity:1" />
  <path
     d="m 44,16.865472 a 14.118857,13.529148 0 1 0 0,19.327352 l -5.0424,-4.831835 a 9.0764082,8.6973093 0 1 1 0,-9.66368 z"
     fill="#2a2a2a"
     id="path2"
     style="fill:#3f3f3f;fill-opacity:1;stroke-width:0.493603" />
</svg>
