<?xml version="1.0" encoding="UTF-8" standalone="no"?>
<svg
   width="64"
   height="64"
   version="1"
   id="svg6"
   sodipodi:docname="dev.mariinkys.Cedilla.svg"
   inkscape:version="1.4.4 (dcaf3e7d9e, 2026-05-05)"
   xmlns:inkscape="http://www.inkscape.org/namespaces/inkscape"
   xmlns:sodipodi="http://sodipodi.sourceforge.net/DTD/sodipodi-0.dtd"
   xmlns="http://www.w3.org/2000/svg"
   xmlns:svg="http://www.w3.org/2000/svg">
  <defs
     id="defs6" />
  <sodipodi:namedview
     id="namedview6"
     pagecolor="#ffffff"
     bordercolor="#000000"
     borderopacity="0.25"
     inkscape:showpageshadow="2"
     inkscape:pageopacity="0.0"
     inkscape:pagecheckerboard="0"
     inkscape:deskcolor="#d1d1d1"
     inkscape:zoom="1.2057114"
     inkscape:cx="-249.23044"
     inkscape:cy="-34.419512"
     inkscape:current-layer="svg6" />
  <rect
     style="opacity:0.2"
     width="58"
     height="58"
     x="3"
     y="4"
     rx="17.4"
     ry="17.4"
     id="rect1" />
  <rect
     style="fill:#f0c350;fill-opacity:1"
     width="58"
     height="58"
     x="3"
     y="3"
     rx="17.4"
     ry="17.4"
     id="rect2" />
  <path
     style="opacity:0.2;fill:#ffffff"
     d="M 20.398438 3 C 10.758838 3 3 10.758838 3 20.398438 L 3 21.398438 C 3 11.758837 10.758838 4 20.398438 4 L 43.601562 4 C 53.241163 4 61 11.758838 61 21.398438 L 61 20.398438 C 61 10.758838 53.241163 3 43.601562 3 L 20.398438 3 z"
     id="path6" />
  <path
     d="m 32.944317,39.453765 c 0,4.069761 7.353571,4.069761 7.353571,9.156965 0,4.069761 -10.505103,4.069761 -12.606123,-2.034881"
     stroke="#2a2a2a"
     stroke-width="3.10153"
     fill="none"
     stroke-linecap="round"
     id="path3-5"
     style="stroke:#606060;stroke-opacity:1" />
  <path
     d="m 44.5,17.069763 a 14.707143,14.244167 0 1 0 0,20.348808 l -5.252551,-5.087199 a 9.454592,9.1569645 0 1 1 0,-10.174408 z"
     fill="#2a2a2a"
     id="path2-6"
     style="fill:#606060;fill-opacity:1;stroke-width:0.516922" />
  <path
     d="m 32.94439,38.453454 c 0,4.069761 7.353571,4.069761 7.353571,9.156965 0,4.069761 -10.505103,4.069761 -12.606123,-2.034881"
     stroke="#2a2a2a"
     stroke-width="3.10153"
     fill="none"
     stroke-linecap="round"
     id="path3"
     style="stroke:#3f3f3f;stroke-opacity:1" />
  <path
     d="m 44.5,16.069763 a 14.707143,14.244167 0 1 0 0,20.348808 l -5.252551,-5.087199 a 9.454592,9.1569645 0 1 1 0,-10.174408 z"
     fill="#2a2a2a"
     id="path2"
     style="stroke-width:0.516922;fill:#3f3f3f;fill-opacity:1" />
</svg>
